# xmcd
#
# Track frame offsets: 
#        150
#        19815
#        36390
#        59853
#        79650
#        104324
#        119779
#        132419
#        150226
#        164526
#        180500
#
# Disc length: 2670 seconds
#
# Revision: 0
# Processed by: cddbd v1.5.2PL0 Copyright (c) Steve Scherf et al.
# Submitted via: ExactAudioCopy v1.0b3
#
DISCID=960a6c0b
DTITLE=Snibb, Pontus - Wreck Of Blues
DYEAR=2014
DGENRE=Blues Rock
TTITLE0=More Blues And Blues Sounds
TTITLE1=Same Same
TTITLE2=No Peace Of Mind
TTITLE3=Boogie Man
TTITLE4=Longing For You
TTITLE5=As I Please
TTITLE6=Lightnin' Change
TTITLE7=I'm Walking
TTITLE8=Turning Back The Clock
TTITLE9=One's Too Many
TTITLE10=Keep On Loving Me
EXTD=
EXTT0=
EXTT1=
EXTT2=
EXTT3=
EXTT4=
EXTT5=
EXTT6=
EXTT7=
EXTT8=
EXTT9=
EXTT10=
PLAYORDER=
